<?xml version="1.0" encoding="utf-8"?>
<!-- Generator: Adobe Illustrator 25.2.3, SVG Export Plug-In . SVG Version: 6.00 Build 0)  -->
<svg version="1.1" id="Layer_1" xmlns="http://www.w3.org/2000/svg" xmlns:xlink="http://www.w3.org/1999/xlink" x="0px" y="0px"
	 viewBox="0 0 349.04 432" style="enable-background:new 0 0 349.04 432;" xml:space="preserve">
<style type="text/css">
    .st0{fill:#6488A3;}
    .st1{fill:#8BBADE;}
    .st2{fill:#F1F1F1;}
    .st3{fill:#9E9E9E;}
</style>
<g id="browser">
	<g>
		<path class="st0" d="M301.31,216.22c0.03-0.28,0.04-0.55,0.04-0.82l-0.12-42.27c-0.01-1.78-0.64-3.04-1.66-3.63l-7.05-4.1
			c1.02,0.59,1.66,1.85,1.66,3.63l0.12,42.27c0,0.27-0.02,0.54-0.04,0.82c-0.01,0.08-0.02,0.17-0.03,0.25
			c-0.03,0.2-0.06,0.41-0.1,0.61c-0.02,0.09-0.03,0.18-0.05,0.27c-0.03,0.15-0.07,0.29-0.11,0.44c-0.03,0.1-0.05,0.2-0.08,0.31
			c-0.05,0.16-0.1,0.31-0.15,0.47c-0.03,0.09-0.06,0.17-0.09,0.26c-0.16,0.44-0.35,0.88-0.56,1.32c-0.01,0.03-0.03,0.06-0.04,0.09
			c-0.24,0.49-0.52,0.96-0.81,1.42c-0.01,0.02-0.02,0.03-0.04,0.05c-0.19,0.28-0.39,0.56-0.6,0.83c-0.05,0.06-0.09,0.12-0.14,0.18
			c-0.22,0.27-0.44,0.53-0.68,0.78c-0.04,0.04-0.07,0.07-0.11,0.11c-0.3,0.3-0.61,0.59-0.92,0.85c-0.02,0.02-0.05,0.03-0.07,0.05
			c-0.33,0.27-0.68,0.51-1.03,0.71l-36.78,21.24c-0.05,0.03-0.1,0.05-0.15,0.08c-0.23,0.13-0.46,0.23-0.68,0.32
			c-0.06,0.02-0.12,0.05-0.18,0.07c-0.25,0.09-0.49,0.16-0.72,0.21c-0.07,0.01-0.14,0.02-0.21,0.03c-0.11,0.02-0.21,0.03-0.32,0.04
			c-0.07,0.01-0.15,0-0.22,0c-0.1,0-0.2,0-0.29,0c-0.08-0.01-0.15-0.02-0.23-0.03c-0.08-0.01-0.16-0.02-0.24-0.04
			c-0.07-0.02-0.15-0.04-0.22-0.06c-0.07-0.02-0.15-0.04-0.22-0.07c-0.12-0.05-0.24-0.1-0.36-0.17l7.05,4.1
			c0.1,0.06,0.2,0.11,0.31,0.15c0.02,0.01,0.03,0.01,0.05,0.02c0.07,0.03,0.15,0.05,0.22,0.07c0.07,0.02,0.14,0.05,0.22,0.06
			c0.08,0.02,0.16,0.03,0.24,0.04c0.06,0.01,0.12,0.02,0.18,0.03c0.02,0,0.03,0,0.05,0c0.09,0.01,0.19,0,0.29,0
			c0.07,0,0.14,0,0.22,0c0.1-0.01,0.21-0.03,0.32-0.04c0.06-0.01,0.12-0.01,0.19-0.03c0.01,0,0.02-0.01,0.02-0.01
			c0.23-0.05,0.48-0.12,0.72-0.21c0.06-0.02,0.12-0.05,0.18-0.07c0.22-0.09,0.45-0.2,0.68-0.32c0.03-0.01,0.05-0.02,0.08-0.04
			c0.02-0.01,0.04-0.02,0.07-0.04l36.78-21.24c0.35-0.2,0.7-0.44,1.03-0.71c0.02-0.02,0.05-0.03,0.07-0.05
			c0.32-0.26,0.63-0.54,0.92-0.85c0.02-0.02,0.05-0.04,0.07-0.06c0.01-0.01,0.03-0.03,0.04-0.05c0.23-0.25,0.46-0.51,0.68-0.78
			c0.05-0.06,0.09-0.12,0.14-0.18c0.21-0.27,0.41-0.54,0.6-0.83c0.01-0.01,0.02-0.03,0.03-0.04c0,0,0-0.01,0.01-0.01
			c0.3-0.46,0.57-0.93,0.81-1.42c0-0.01,0.01-0.02,0.02-0.03c0.01-0.02,0.02-0.04,0.03-0.06c0.21-0.43,0.4-0.87,0.56-1.32
			c0-0.01,0.01-0.02,0.01-0.03c0.03-0.07,0.05-0.15,0.07-0.23c0.05-0.16,0.1-0.31,0.15-0.47c0.03-0.1,0.06-0.2,0.08-0.31
			c0.04-0.15,0.08-0.29,0.11-0.44c0.01-0.04,0.02-0.08,0.03-0.12c0.01-0.05,0.01-0.1,0.02-0.15c0.04-0.21,0.07-0.41,0.1-0.61
			C301.29,216.39,301.31,216.31,301.31,216.22z"/>
		<path class="st0" d="M294.03,141.25c-0.03,0.2-0.06,0.41-0.1,0.62c-0.02,0.09-0.03,0.18-0.05,0.27c-0.03,0.15-0.07,0.29-0.11,0.44
			c-0.03,0.1-0.05,0.2-0.08,0.31c-0.05,0.16-0.1,0.31-0.15,0.47c-0.03,0.09-0.06,0.17-0.09,0.26c-0.16,0.44-0.35,0.88-0.56,1.31
			c-0.01,0.03-0.03,0.06-0.04,0.09c-0.24,0.49-0.52,0.96-0.81,1.42c-0.01,0.02-0.02,0.04-0.04,0.05c-0.19,0.28-0.39,0.56-0.6,0.83
			c-0.05,0.06-0.09,0.12-0.14,0.18c-0.22,0.27-0.44,0.53-0.68,0.78c-0.04,0.04-0.07,0.07-0.11,0.11c-0.3,0.3-0.6,0.59-0.92,0.85
			c-0.02,0.02-0.05,0.03-0.07,0.05c-0.33,0.26-0.68,0.51-1.03,0.71l-36.78,21.24c-0.05,0.03-0.1,0.05-0.15,0.08
			c-0.23,0.13-0.46,0.23-0.68,0.32c-0.06,0.02-0.12,0.05-0.18,0.07c-0.25,0.09-0.49,0.16-0.72,0.21c-0.07,0.01-0.14,0.02-0.21,0.03
			c-0.11,0.02-0.22,0.04-0.32,0.04c-0.07,0.01-0.15,0-0.22,0c-0.1,0-0.2,0-0.29,0c-0.08-0.01-0.15-0.02-0.23-0.03
			c-0.08-0.01-0.16-0.02-0.24-0.04c-0.07-0.02-0.15-0.04-0.22-0.06c-0.07-0.02-0.15-0.04-0.22-0.07c-0.12-0.05-0.24-0.1-0.36-0.17
			l7.05,4.1c0.1,0.06,0.2,0.11,0.31,0.15c0.02,0.01,0.03,0.01,0.05,0.02c0.07,0.03,0.15,0.05,0.22,0.07
			c0.07,0.02,0.14,0.05,0.22,0.06c0.08,0.02,0.16,0.03,0.24,0.04c0.06,0.01,0.12,0.02,0.18,0.03c0.02,0,0.04,0,0.05,0
			c0.09,0.01,0.19,0,0.29,0c0.07,0,0.14,0,0.22,0c0.1-0.01,0.21-0.03,0.32-0.04c0.06-0.01,0.12-0.01,0.19-0.02
			c0.01,0,0.02-0.01,0.02-0.01c0.23-0.05,0.48-0.12,0.72-0.21c0.06-0.02,0.12-0.05,0.18-0.07c0.22-0.09,0.45-0.2,0.68-0.32
			c0.03-0.01,0.05-0.02,0.08-0.04c0.02-0.01,0.04-0.02,0.07-0.04l36.78-21.24c0.35-0.2,0.7-0.44,1.03-0.71
			c0.02-0.02,0.05-0.03,0.07-0.05c0.32-0.26,0.63-0.54,0.92-0.85c0.02-0.02,0.05-0.04,0.07-0.06c0.01-0.01,0.03-0.03,0.04-0.05
			c0.24-0.25,0.46-0.51,0.68-0.78c0.05-0.06,0.09-0.12,0.14-0.18c0.21-0.27,0.41-0.54,0.6-0.83c0.01-0.01,0.02-0.03,0.03-0.04
			c0,0,0-0.01,0.01-0.01c0.3-0.46,0.57-0.93,0.81-1.42c0-0.01,0.01-0.02,0.02-0.03c0.01-0.02,0.02-0.04,0.03-0.06
			c0.21-0.43,0.4-0.87,0.56-1.31c0-0.01,0.01-0.02,0.01-0.03c0.03-0.07,0.05-0.15,0.07-0.23c0.05-0.16,0.1-0.31,0.15-0.47
			c0.03-0.1,0.05-0.2,0.08-0.3c0.04-0.15,0.08-0.29,0.11-0.44c0.01-0.04,0.02-0.08,0.03-0.12c0.01-0.05,0.01-0.1,0.02-0.15
			c0.04-0.21,0.07-0.41,0.1-0.61c0.01-0.08,0.02-0.17,0.03-0.25c0.03-0.28,0.04-0.55,0.04-0.82l-0.12-42.27
			c-0.01-1.78-0.64-3.03-1.66-3.63l-7.05-4.1c1.02,0.59,1.65,1.85,1.66,3.63l0.12,42.27c0,0.27-0.02,0.54-0.04,0.82
			C294.06,141.08,294.05,141.17,294.03,141.25z"/>
		<path class="st0" d="M237.94,252.81c0.03-0.28,0.04-0.55,0.04-0.82l-0.12-42.27c-0.01-1.78-0.64-3.04-1.66-3.63l-7.05-4.1
			c1.02,0.59,1.66,1.85,1.66,3.63l0.12,42.27c0,0.27-0.02,0.54-0.04,0.82c-0.01,0.08-0.02,0.16-0.03,0.25
			c-0.03,0.2-0.06,0.41-0.1,0.62c-0.02,0.09-0.03,0.18-0.05,0.27c-0.03,0.15-0.07,0.3-0.11,0.44c-0.03,0.1-0.05,0.2-0.08,0.3
			c-0.05,0.16-0.1,0.31-0.15,0.47c-0.03,0.09-0.06,0.17-0.09,0.26c-0.16,0.44-0.35,0.88-0.56,1.31c-0.01,0.03-0.03,0.06-0.04,0.09
			c-0.24,0.49-0.52,0.96-0.81,1.42c-0.01,0.02-0.03,0.04-0.04,0.06c-0.19,0.28-0.39,0.56-0.59,0.82c-0.05,0.06-0.09,0.12-0.14,0.18
			c-0.22,0.27-0.44,0.53-0.68,0.78c-0.03,0.04-0.07,0.07-0.11,0.11c-0.3,0.3-0.61,0.59-0.92,0.85c-0.02,0.02-0.05,0.03-0.07,0.05
			c-0.33,0.27-0.68,0.51-1.03,0.71l-36.78,21.24c-0.05,0.03-0.1,0.05-0.15,0.08c-0.23,0.13-0.46,0.23-0.68,0.32
			c-0.06,0.02-0.12,0.05-0.18,0.07c-0.25,0.09-0.49,0.16-0.72,0.21c-0.07,0.01-0.14,0.02-0.21,0.03c-0.11,0.02-0.21,0.03-0.32,0.04
			c-0.07,0.01-0.15,0-0.22,0c-0.1,0-0.2,0-0.29,0c-0.08-0.01-0.15-0.02-0.23-0.03c-0.08-0.01-0.16-0.02-0.24-0.04
			c-0.07-0.02-0.15-0.04-0.22-0.06c-0.07-0.02-0.15-0.04-0.22-0.07c-0.12-0.05-0.24-0.1-0.36-0.17l7.05,4.1
			c0.1,0.06,0.2,0.11,0.31,0.15c0.02,0.01,0.03,0.01,0.05,0.02c0.07,0.03,0.15,0.05,0.22,0.07c0.07,0.02,0.14,0.05,0.22,0.06
			c0.08,0.02,0.16,0.03,0.24,0.04c0.06,0.01,0.12,0.02,0.18,0.03c0.02,0,0.03,0,0.05,0c0.09,0.01,0.19,0,0.29,0
			c0.07,0,0.15,0,0.22,0c0.1-0.01,0.21-0.03,0.32-0.04c0.06-0.01,0.12-0.01,0.19-0.03c0.01,0,0.02-0.01,0.02-0.01
			c0.23-0.05,0.48-0.12,0.72-0.21c0.06-0.02,0.12-0.05,0.18-0.07c0.22-0.09,0.45-0.2,0.68-0.32c0.03-0.01,0.05-0.02,0.08-0.04
			c0.02-0.01,0.04-0.02,0.07-0.04l36.78-21.24c0.35-0.2,0.7-0.44,1.03-0.71c0.02-0.02,0.05-0.03,0.07-0.05
			c0.32-0.26,0.63-0.54,0.92-0.85c0.02-0.02,0.05-0.04,0.07-0.06c0.01-0.01,0.03-0.03,0.04-0.05c0.24-0.25,0.46-0.51,0.68-0.78
			c0.05-0.06,0.09-0.12,0.14-0.18c0.21-0.27,0.41-0.54,0.6-0.83c0.01-0.02,0.02-0.03,0.03-0.04c0,0,0-0.01,0.01-0.01
			c0.3-0.46,0.57-0.93,0.81-1.42c0-0.01,0.01-0.02,0.02-0.03c0.01-0.02,0.02-0.04,0.03-0.06c0.21-0.43,0.4-0.87,0.56-1.32
			c0-0.01,0.01-0.02,0.01-0.03c0.03-0.08,0.05-0.15,0.07-0.23c0.05-0.15,0.1-0.31,0.15-0.46c0.03-0.1,0.06-0.2,0.08-0.31
			c0.04-0.15,0.08-0.29,0.11-0.44c0.01-0.04,0.02-0.08,0.03-0.12c0.01-0.05,0.01-0.1,0.02-0.15c0.04-0.21,0.07-0.41,0.1-0.61
			C237.92,252.98,237.93,252.89,237.94,252.81z"/>
		<path class="st0" d="M176.56,288.25c0.03-0.28,0.04-0.55,0.04-0.82l-0.12-42.27c-0.01-1.78-0.64-3.04-1.66-3.63l-7.05-4.1
			c1.02,0.59,1.66,1.85,1.66,3.63l0.12,42.27c0,0.27-0.02,0.54-0.04,0.82c-0.01,0.08-0.02,0.17-0.03,0.25
			c-0.03,0.2-0.06,0.41-0.1,0.61c-0.02,0.09-0.03,0.18-0.05,0.27c-0.03,0.15-0.07,0.29-0.11,0.44c-0.03,0.1-0.05,0.2-0.08,0.31
			c-0.05,0.16-0.1,0.31-0.15,0.47c-0.03,0.09-0.06,0.17-0.09,0.26c-0.16,0.44-0.35,0.88-0.56,1.32c-0.01,0.03-0.03,0.06-0.04,0.09
			c-0.24,0.49-0.52,0.96-0.81,1.42c-0.01,0.02-0.03,0.04-0.04,0.05c-0.19,0.28-0.39,0.56-0.6,0.83c-0.05,0.06-0.09,0.12-0.14,0.18
			c-0.22,0.27-0.44,0.53-0.68,0.78c-0.04,0.04-0.07,0.07-0.11,0.11c-0.3,0.3-0.61,0.59-0.92,0.85c-0.02,0.02-0.05,0.03-0.07,0.05
			c-0.33,0.26-0.68,0.51-1.03,0.71l-36.79,21.24c-0.05,0.03-0.1,0.05-0.15,0.08c-0.23,0.13-0.45,0.23-0.67,0.32
			c-0.06,0.02-0.12,0.05-0.18,0.07c-0.25,0.09-0.49,0.16-0.72,0.21c-0.07,0.01-0.14,0.02-0.21,0.03c-0.11,0.02-0.21,0.03-0.32,0.04
			c-0.07,0.01-0.15,0-0.22,0c-0.1,0-0.2,0-0.29,0c-0.08-0.01-0.15-0.02-0.23-0.03c-0.08-0.01-0.16-0.02-0.24-0.04
			c-0.07-0.02-0.14-0.04-0.22-0.06c-0.07-0.02-0.15-0.04-0.22-0.07c-0.12-0.05-0.24-0.1-0.35-0.17c0,0,0,0,0,0l0,0c0,0,0,0,0,0
			l7.05,4.1c0.1,0.06,0.2,0.11,0.31,0.15c0.02,0.01,0.03,0.01,0.05,0.02c0.07,0.03,0.15,0.05,0.22,0.07
			c0.07,0.02,0.14,0.05,0.22,0.06c0.08,0.02,0.16,0.03,0.24,0.04c0.06,0.01,0.12,0.02,0.18,0.03c0.02,0,0.03,0,0.05,0
			c0.09,0.01,0.19,0,0.29,0c0.07,0,0.14,0,0.22,0c0.1-0.01,0.21-0.03,0.32-0.04c0.06-0.01,0.12-0.01,0.19-0.03
			c0.01,0,0.02-0.01,0.02-0.01c0.23-0.05,0.48-0.12,0.72-0.21c0.06-0.02,0.12-0.05,0.18-0.07c0.22-0.09,0.45-0.2,0.68-0.32
			c0.03-0.01,0.05-0.02,0.08-0.04c0.02-0.01,0.04-0.02,0.07-0.04l36.79-21.24c0.35-0.2,0.7-0.44,1.03-0.71
			c0.02-0.02,0.05-0.03,0.07-0.05c0.32-0.26,0.63-0.54,0.92-0.85c0.02-0.02,0.05-0.04,0.07-0.06c0.01-0.01,0.03-0.03,0.04-0.05
			c0.23-0.25,0.46-0.51,0.68-0.78c0.05-0.06,0.09-0.12,0.14-0.18c0.21-0.27,0.41-0.54,0.59-0.82c0.01-0.02,0.02-0.03,0.03-0.05
			c0,0,0-0.01,0.01-0.01c0.3-0.46,0.57-0.93,0.81-1.42c0-0.01,0.01-0.02,0.02-0.03c0.01-0.02,0.02-0.04,0.03-0.06
			c0.21-0.43,0.4-0.87,0.56-1.31c0-0.01,0.01-0.02,0.01-0.03c0.03-0.08,0.05-0.15,0.07-0.23c0.05-0.16,0.1-0.31,0.15-0.47
			c0.03-0.1,0.05-0.2,0.08-0.3c0.04-0.15,0.08-0.29,0.11-0.44c0.01-0.04,0.02-0.08,0.03-0.12c0.01-0.05,0.01-0.1,0.02-0.15
			c0.04-0.21,0.07-0.41,0.1-0.61C176.55,288.41,176.56,288.33,176.56,288.25z"/>
		<path class="st0" d="M326.79,29.94c0.08-0.03,0.16-0.05,0.23-0.08c0.2-0.06,0.39-0.12,0.59-0.16c0.05-0.01,0.11-0.03,0.16-0.04
			c0.11-0.02,0.22-0.03,0.34-0.05c0.16-0.02,0.32-0.05,0.48-0.06c0.11-0.01,0.22,0,0.33-0.01c0.15,0,0.29-0.01,0.43,0
			c0.12,0.01,0.23,0.03,0.35,0.04c0.12,0.02,0.24,0.03,0.36,0.06c0.11,0.03,0.22,0.06,0.33,0.09c0.11,0.03,0.22,0.07,0.33,0.11
			c0.18,0.07,0.37,0.16,0.54,0.26l0,0c0,0,0,0,0,0l-7.05-4.1c-0.15-0.09-0.3-0.16-0.46-0.23c-0.02-0.01-0.05-0.02-0.08-0.02
			c-0.11-0.04-0.22-0.07-0.33-0.11c-0.11-0.03-0.21-0.07-0.32-0.09c-0.12-0.03-0.24-0.04-0.36-0.06c-0.09-0.01-0.18-0.04-0.27-0.04
			c-0.03,0-0.05,0-0.08,0c-0.14-0.01-0.29-0.01-0.43,0c-0.11,0-0.22,0-0.33,0.01c-0.16,0.01-0.32,0.04-0.48,0.06
			c-0.1,0.01-0.19,0.02-0.28,0.04c-0.02,0-0.04,0.01-0.05,0.01c-0.05,0.01-0.11,0.03-0.16,0.04c-0.19,0.05-0.39,0.1-0.59,0.16
			c-0.08,0.03-0.16,0.05-0.23,0.08c-0.19,0.07-0.39,0.15-0.59,0.24c-0.06,0.03-0.12,0.05-0.19,0.08c-0.24,0.11-0.48,0.23-0.72,0.37
			c-0.03,0.02-0.07,0.04-0.1,0.06L36.26,189.32c-0.28,0.16-0.57,0.34-0.84,0.54c-0.09,0.06-0.18,0.14-0.27,0.2
			c-0.18,0.13-0.37,0.27-0.55,0.41c-0.11,0.09-0.21,0.18-0.32,0.27c-0.16,0.14-0.32,0.27-0.48,0.42c-0.11,0.1-0.22,0.21-0.33,0.32
			c-0.12,0.11-0.23,0.22-0.35,0.34c-0.02,0.02-0.04,0.05-0.06,0.07c-0.35,0.37-0.69,0.76-1.02,1.17c-0.07,0.09-0.14,0.18-0.21,0.27
			c-0.31,0.4-0.61,0.81-0.89,1.23c-0.02,0.02-0.03,0.04-0.05,0.07c-0.01,0.01-0.01,0.02-0.02,0.03c-0.22,0.34-0.43,0.68-0.63,1.03
			c-0.04,0.08-0.08,0.16-0.13,0.24c-0.15,0.27-0.3,0.55-0.44,0.83c-0.01,0.02-0.02,0.04-0.03,0.06c-0.07,0.14-0.13,0.29-0.2,0.43
			c-0.09,0.18-0.17,0.37-0.25,0.55c-0.07,0.17-0.14,0.34-0.2,0.51c-0.07,0.18-0.15,0.37-0.22,0.55c-0.01,0.03-0.02,0.05-0.03,0.08
			c-0.04,0.11-0.07,0.22-0.11,0.34c-0.08,0.24-0.16,0.47-0.23,0.71c-0.04,0.15-0.08,0.3-0.12,0.45c-0.06,0.22-0.12,0.44-0.16,0.67
			c-0.01,0.06-0.03,0.12-0.04,0.18c-0.02,0.08-0.02,0.15-0.04,0.23c-0.06,0.31-0.11,0.62-0.15,0.92c-0.02,0.12-0.03,0.25-0.05,0.37
			c-0.04,0.41-0.07,0.83-0.07,1.23l0.57,200.53c0.01,2,0.54,3.56,1.46,4.6c0.3,0.34,0.65,0.63,1.03,0.85l7.05,4.1
			c-1.53-0.89-2.48-2.77-2.49-5.45l-0.57-200.53c0-0.4,0.03-0.81,0.07-1.23c0.01-0.12,0.03-0.25,0.05-0.37
			c0.04-0.31,0.09-0.61,0.15-0.92c0.03-0.14,0.05-0.27,0.08-0.41c0.05-0.22,0.11-0.44,0.16-0.66c0.04-0.15,0.08-0.3,0.12-0.46
			c0.07-0.23,0.15-0.47,0.23-0.7c0.05-0.14,0.09-0.28,0.14-0.42c0.07-0.19,0.14-0.37,0.22-0.55c0.07-0.17,0.13-0.34,0.2-0.51
			c0.03-0.06,0.06-0.12,0.08-0.18l0.02,5.42c0,0.6,0.22,1.03,0.56,1.23l0,0c0,0,0,0,0,0l0,0l0,0l7.05,4.1
			c0.03,0.02,0.07,0.04,0.1,0.05c0.03,0.01,0.06,0.01,0.09,0.02c0.05,0.02,0.1,0.03,0.16,0.04c0.02,0,0.04,0.01,0.06,0.01
			c0.03,0,0.07-0.01,0.1-0.01c0.06,0,0.13,0,0.19-0.01c0.03,0,0.05,0,0.07,0c0.05-0.01,0.1-0.03,0.14-0.04
			c0.03-0.01,0.06-0.02,0.09-0.03c0.11-0.04,0.22-0.09,0.34-0.15c0.01,0,0.01-0.01,0.02-0.01l16.19-9.34
			c0.13-0.07,0.25-0.16,0.38-0.26c0.04-0.03,0.08-0.07,0.12-0.11c0.07-0.06,0.14-0.12,0.21-0.19c0.01-0.01,0.01-0.01,0.01-0.02
			c0.16-0.17,0.31-0.36,0.44-0.56c0.01-0.02,0.03-0.04,0.05-0.06c0.02-0.03,0.04-0.07,0.06-0.11c0.06-0.09,0.11-0.18,0.16-0.27
			c0.02-0.04,0.05-0.08,0.07-0.12c0.02-0.03,0.03-0.07,0.04-0.1c0.04-0.08,0.07-0.16,0.1-0.24c0.02-0.05,0.04-0.09,0.06-0.14
			c0.01-0.03,0.02-0.06,0.03-0.09c0.03-0.1,0.06-0.2,0.08-0.29c0.01-0.05,0.03-0.1,0.04-0.14c0-0.02,0-0.04,0.01-0.06
			c0.04-0.19,0.06-0.38,0.06-0.56l-0.02-6.57l1.1,0.64c0.51,0.3,1.04,0.6,1.58,0.92l1.35,0.78c0.57,0.33,1.13,0.66,1.68,0.97
			l1.33,0.77c0.03,0.02,0.07,0.04,0.1,0.05c0.03,0.01,0.06,0.01,0.09,0.02c0.05,0.02,0.1,0.03,0.15,0.04c0.02,0,0.04,0.01,0.06,0.01
			c0.03,0,0.07-0.01,0.1-0.01c0.06,0,0.13,0,0.19-0.01c0.03,0,0.05,0,0.07,0c0.05-0.01,0.1-0.03,0.14-0.04
			c0.03-0.01,0.06-0.02,0.09-0.03c0.11-0.04,0.22-0.09,0.34-0.15c0.01,0,0.01-0.01,0.02-0.01L322.15,52.5
			c0.13-0.07,0.25-0.16,0.38-0.26c0.04-0.03,0.08-0.07,0.12-0.11c0.07-0.06,0.15-0.13,0.22-0.2c0.01-0.01,0.01-0.01,0.01-0.02
			c0.16-0.17,0.31-0.36,0.44-0.56c0.01-0.02,0.03-0.04,0.05-0.06c0.02-0.03,0.04-0.07,0.06-0.11c0.06-0.09,0.11-0.18,0.16-0.27
			c0.02-0.04,0.05-0.08,0.07-0.12c0.02-0.03,0.03-0.07,0.04-0.1c0.04-0.08,0.07-0.16,0.1-0.24c0.02-0.05,0.04-0.09,0.06-0.14
			c0.01-0.03,0.02-0.06,0.03-0.09c0.03-0.1,0.06-0.19,0.08-0.29c0.01-0.05,0.03-0.1,0.04-0.14c0-0.02,0-0.04,0.01-0.06
			c0.04-0.19,0.06-0.38,0.06-0.56l-0.02-6.92c0-0.36-0.09-0.65-0.22-0.88c-0.08-0.13-0.18-0.24-0.3-0.32
			c-0.01-0.01-0.03-0.03-0.04-0.03l-7.05-4.1c0,0,0,0,0,0l0,0c-0.03-0.02-0.07-0.04-0.1-0.05c-0.03-0.01-0.06-0.01-0.09-0.02
			c-0.05-0.02-0.1-0.03-0.15-0.04c-0.02,0-0.04-0.01-0.06-0.01c-0.03,0-0.07,0.01-0.1,0.01c-0.06,0-0.13,0-0.19,0.01
			c-0.03,0-0.05,0-0.07,0c-0.05,0.01-0.1,0.03-0.14,0.04c-0.03,0.01-0.06,0.02-0.09,0.03c-0.11,0.04-0.22,0.09-0.34,0.15
			c-0.01,0-0.01,0.01-0.02,0.01L64.73,181.59c-0.13,0.07-0.25,0.16-0.38,0.26c-0.04,0.03-0.08,0.07-0.12,0.11
			c-0.07,0.06-0.14,0.12-0.21,0.19c-0.01,0.01-0.01,0.01-0.01,0.02c-0.16,0.17-0.31,0.36-0.44,0.56c-0.01,0.02-0.03,0.04-0.05,0.06
			c-0.02,0.03-0.04,0.07-0.06,0.11c-0.06,0.09-0.11,0.18-0.16,0.27c-0.02,0.04-0.05,0.08-0.07,0.12c-0.02,0.03-0.03,0.07-0.04,0.1
			c-0.04,0.08-0.07,0.16-0.1,0.24c-0.02,0.05-0.04,0.09-0.06,0.14c-0.01,0.03-0.02,0.06-0.03,0.09c-0.03,0.1-0.06,0.19-0.08,0.29
			c-0.01,0.05-0.03,0.1-0.04,0.14c0,0.02,0,0.04-0.01,0.06c-0.04,0.19-0.06,0.38-0.06,0.56l0.02,6.57l-7.03-4.08
			c-0.03-0.02-0.07-0.04-0.1-0.05c-0.03-0.01-0.06-0.01-0.09-0.02c-0.05-0.02-0.1-0.03-0.16-0.04c-0.02,0-0.04-0.01-0.06-0.01
			c-0.03,0-0.07,0.01-0.1,0.01c-0.06,0-0.13,0-0.19,0.01c-0.03,0-0.05,0-0.07,0c-0.05,0.01-0.1,0.03-0.14,0.04
			c-0.03,0.01-0.06,0.02-0.09,0.03c-0.11,0.04-0.22,0.09-0.34,0.15c-0.01,0-0.01,0.01-0.02,0.01l-13.86,8
			c0.09-0.09,0.19-0.19,0.28-0.27c0.16-0.14,0.31-0.28,0.47-0.41c0.11-0.09,0.21-0.19,0.32-0.27c0.18-0.14,0.36-0.28,0.55-0.41
			c0.09-0.07,0.18-0.14,0.27-0.2c0.28-0.19,0.56-0.37,0.84-0.54L325.19,30.68c0.28-0.16,0.55-0.3,0.82-0.43
			c0.06-0.03,0.12-0.05,0.19-0.08C326.4,30.08,326.59,30.01,326.79,29.94z M69.92,188.45c0.01-0.07,0.03-0.14,0.05-0.2
			c0.02-0.1,0.05-0.19,0.08-0.29c0.03-0.08,0.05-0.15,0.08-0.23c0.03-0.08,0.07-0.16,0.1-0.24c0.03-0.07,0.07-0.15,0.11-0.22
			c0.05-0.09,0.1-0.18,0.15-0.27c0.04-0.06,0.07-0.11,0.11-0.17c0.14-0.2,0.28-0.39,0.44-0.56c0.07-0.08,0.15-0.14,0.23-0.21
			c0.04-0.04,0.08-0.08,0.12-0.11c0.12-0.1,0.25-0.19,0.38-0.26L317.03,44.09l0,0.98c0,0.18-0.02,0.37-0.06,0.56
			c-0.01,0.07-0.03,0.14-0.05,0.2c-0.02,0.1-0.05,0.19-0.08,0.29c-0.03,0.08-0.05,0.15-0.08,0.23c-0.03,0.08-0.07,0.16-0.1,0.24
			c-0.03,0.07-0.07,0.14-0.11,0.22c-0.05,0.09-0.1,0.18-0.16,0.27c-0.04,0.06-0.07,0.11-0.11,0.17c-0.14,0.2-0.28,0.39-0.44,0.56
			c-0.07,0.08-0.15,0.14-0.23,0.21c-0.04,0.04-0.08,0.08-0.12,0.11c-0.12,0.1-0.25,0.19-0.38,0.26L69.86,190l0-0.98
			C69.86,188.83,69.88,188.64,69.92,188.45z M56.38,194.57l0,0.98c0,0.18-0.02,0.37-0.06,0.56c-0.01,0.07-0.03,0.13-0.05,0.2
			c-0.02,0.1-0.05,0.2-0.08,0.29c-0.03,0.08-0.05,0.15-0.08,0.23c-0.03,0.08-0.07,0.16-0.1,0.24c-0.03,0.07-0.07,0.15-0.11,0.22
			c-0.05,0.09-0.1,0.18-0.16,0.27c-0.04,0.06-0.07,0.11-0.11,0.17c-0.14,0.2-0.28,0.39-0.44,0.56c-0.07,0.08-0.15,0.14-0.23,0.21
			c-0.04,0.04-0.08,0.08-0.12,0.11c-0.12,0.1-0.25,0.19-0.38,0.26l-11.09,6.41l0-0.98c0-0.18,0.02-0.37,0.06-0.56
			c0.01-0.07,0.03-0.14,0.05-0.2c0.02-0.1,0.05-0.19,0.08-0.29c0.03-0.08,0.06-0.15,0.09-0.23c0.03-0.08,0.07-0.16,0.1-0.24
			c0.03-0.07,0.07-0.15,0.11-0.22c0.05-0.09,0.1-0.18,0.16-0.27c0.04-0.06,0.07-0.11,0.11-0.17c0.14-0.2,0.28-0.39,0.45-0.56
			c0.07-0.08,0.15-0.14,0.23-0.21c0.04-0.04,0.08-0.08,0.12-0.11c0.12-0.1,0.25-0.19,0.38-0.26L56.38,194.57z"/>
		<path class="st0" d="M230.66,177.84c-0.03,0.2-0.06,0.41-0.1,0.61c-0.02,0.09-0.03,0.18-0.05,0.27c-0.03,0.15-0.07,0.29-0.11,0.44
			c-0.03,0.1-0.05,0.2-0.08,0.3c-0.05,0.16-0.1,0.31-0.15,0.47c-0.03,0.09-0.06,0.17-0.09,0.26c-0.16,0.44-0.35,0.88-0.56,1.32
			c-0.01,0.03-0.03,0.06-0.04,0.09c-0.24,0.49-0.52,0.96-0.81,1.42c-0.01,0.02-0.02,0.04-0.04,0.05c-0.19,0.28-0.39,0.56-0.6,0.83
			c-0.05,0.06-0.09,0.12-0.14,0.18c-0.22,0.27-0.44,0.53-0.68,0.78c-0.03,0.04-0.07,0.07-0.11,0.11c-0.3,0.3-0.61,0.59-0.92,0.85
			c-0.02,0.02-0.05,0.03-0.07,0.05c-0.33,0.27-0.68,0.51-1.03,0.71l-36.78,21.24c-0.05,0.03-0.1,0.05-0.15,0.08
			c-0.23,0.13-0.46,0.23-0.68,0.32c-0.06,0.02-0.12,0.05-0.18,0.07c-0.25,0.09-0.49,0.16-0.72,0.21c-0.07,0.01-0.14,0.02-0.21,0.03
			c-0.11,0.02-0.21,0.03-0.32,0.04c-0.07,0.01-0.15,0-0.22,0c-0.1,0-0.2,0-0.29,0c-0.08-0.01-0.15-0.02-0.23-0.03
			c-0.08-0.01-0.16-0.02-0.24-0.04c-0.07-0.02-0.15-0.04-0.22-0.06c-0.07-0.02-0.15-0.04-0.22-0.07c-0.12-0.05-0.24-0.1-0.36-0.17
			l7.05,4.1c0.1,0.06,0.2,0.11,0.31,0.15c0.02,0.01,0.03,0.01,0.05,0.02c0.07,0.03,0.15,0.05,0.22,0.07
			c0.07,0.02,0.14,0.05,0.22,0.06c0.08,0.02,0.16,0.03,0.24,0.04c0.06,0.01,0.12,0.02,0.18,0.03c0.02,0,0.03,0,0.05,0
			c0.09,0.01,0.19,0,0.29,0c0.07,0,0.14,0,0.22,0c0.1-0.01,0.21-0.03,0.32-0.04c0.06-0.01,0.12-0.01,0.19-0.03
			c0.01,0,0.02-0.01,0.02-0.01c0.23-0.05,0.48-0.12,0.72-0.21c0.06-0.02,0.12-0.05,0.18-0.07c0.22-0.09,0.45-0.2,0.68-0.32
			c0.03-0.02,0.05-0.02,0.08-0.04c0.02-0.01,0.04-0.03,0.07-0.04l36.78-21.24c0.35-0.2,0.7-0.44,1.03-0.71
			c0.02-0.02,0.05-0.03,0.07-0.05c0.32-0.26,0.63-0.54,0.92-0.85c0.02-0.02,0.05-0.04,0.07-0.06c0.01-0.01,0.03-0.03,0.04-0.05
			c0.24-0.25,0.46-0.51,0.68-0.78c0.05-0.06,0.09-0.12,0.14-0.18c0.21-0.27,0.41-0.54,0.59-0.82c0.01-0.02,0.02-0.03,0.03-0.04
			c0,0,0-0.01,0.01-0.01c0.3-0.46,0.57-0.93,0.81-1.42c0-0.01,0.01-0.02,0.02-0.03c0.01-0.02,0.02-0.04,0.03-0.06
			c0.21-0.43,0.4-0.87,0.56-1.31c0-0.01,0.01-0.02,0.01-0.03c0.03-0.08,0.05-0.15,0.07-0.23c0.05-0.16,0.1-0.31,0.15-0.47
			c0.03-0.1,0.05-0.2,0.08-0.3c0.04-0.15,0.08-0.29,0.11-0.44c0.01-0.04,0.02-0.08,0.03-0.12c0.01-0.05,0.01-0.1,0.02-0.15
			c0.04-0.21,0.07-0.41,0.1-0.62c0.01-0.08,0.02-0.16,0.03-0.25c0.03-0.28,0.04-0.55,0.04-0.82l-0.12-42.27
			c-0.01-1.78-0.64-3.03-1.66-3.62l-7.05-4.1c1.02,0.59,1.65,1.85,1.66,3.62l0.12,42.27c0,0.27-0.02,0.54-0.04,0.82
			C230.68,177.67,230.67,177.75,230.66,177.84z"/>
		<path class="st0" d="M116.2,323.1c0.03-0.28,0.04-0.55,0.04-0.82l-0.12-42.27c-0.01-1.78-0.64-3.04-1.66-3.63l-7.05-4.1
			c1.02,0.59,1.66,1.85,1.66,3.63l0.12,42.27c0,0.27-0.02,0.54-0.04,0.82c-0.01,0.08-0.02,0.16-0.03,0.25
			c-0.03,0.2-0.06,0.41-0.1,0.61c-0.02,0.09-0.03,0.18-0.05,0.27c-0.03,0.15-0.07,0.29-0.11,0.44c-0.03,0.1-0.05,0.2-0.08,0.31
			c-0.05,0.16-0.1,0.31-0.15,0.47c-0.03,0.09-0.06,0.17-0.09,0.26c-0.16,0.44-0.35,0.88-0.56,1.32c-0.01,0.03-0.03,0.06-0.04,0.09
			c-0.24,0.49-0.52,0.96-0.81,1.42c-0.01,0.02-0.03,0.04-0.04,0.05c-0.19,0.28-0.39,0.56-0.6,0.82c-0.05,0.06-0.09,0.12-0.14,0.18
			c-0.22,0.27-0.44,0.53-0.68,0.78c-0.04,0.04-0.07,0.07-0.11,0.11c-0.3,0.3-0.61,0.59-0.92,0.85c-0.02,0.02-0.05,0.03-0.07,0.05
			c-0.33,0.26-0.68,0.51-1.03,0.71l-36.78,21.24c-0.05,0.03-0.1,0.05-0.15,0.08c-0.23,0.13-0.46,0.23-0.68,0.32
			c-0.06,0.02-0.12,0.05-0.18,0.07c-0.25,0.09-0.49,0.16-0.72,0.21c-0.07,0.02-0.14,0.02-0.21,0.03c-0.11,0.02-0.21,0.03-0.32,0.04
			c-0.08,0.01-0.15,0-0.22,0c-0.1,0-0.19,0-0.29,0c-0.08-0.01-0.15-0.02-0.23-0.03c-0.08-0.01-0.16-0.02-0.24-0.04
			c-0.07-0.02-0.15-0.04-0.22-0.06c-0.07-0.02-0.15-0.04-0.22-0.07c-0.12-0.05-0.24-0.1-0.36-0.17l7.05,4.1
			c0.1,0.06,0.2,0.11,0.31,0.15c0.02,0.01,0.03,0.01,0.05,0.02c0.07,0.03,0.15,0.05,0.22,0.07c0.07,0.02,0.14,0.05,0.22,0.06
			c0.08,0.02,0.16,0.03,0.24,0.04c0.06,0.01,0.12,0.02,0.18,0.03c0.02,0,0.03,0,0.05,0c0.09,0.01,0.19,0,0.29,0
			c0.07,0,0.15,0,0.22,0c0.1-0.01,0.21-0.03,0.32-0.04c0.06-0.01,0.13-0.01,0.19-0.03c0.01,0,0.02-0.01,0.02-0.01
			c0.23-0.05,0.48-0.12,0.72-0.21c0.06-0.02,0.12-0.05,0.18-0.07c0.22-0.09,0.45-0.2,0.68-0.32c0.03-0.01,0.05-0.02,0.08-0.04
			c0.02-0.01,0.04-0.02,0.07-0.04l36.78-21.24c0.35-0.2,0.7-0.44,1.03-0.71c0.02-0.02,0.05-0.03,0.07-0.05
			c0.32-0.26,0.63-0.54,0.92-0.85c0.02-0.02,0.05-0.04,0.07-0.06c0.01-0.01,0.03-0.03,0.04-0.05c0.24-0.25,0.46-0.51,0.68-0.78
			c0.05-0.06,0.09-0.12,0.14-0.18c0.21-0.27,0.41-0.54,0.6-0.82c0.01-0.02,0.02-0.03,0.03-0.04c0,0,0-0.01,0.01-0.01
			c0.3-0.46,0.57-0.93,0.81-1.42c0-0.01,0.01-0.02,0.02-0.03c0.01-0.02,0.02-0.04,0.03-0.06c0.21-0.43,0.4-0.87,0.56-1.32
			c0-0.01,0.01-0.02,0.01-0.03c0.03-0.07,0.05-0.15,0.07-0.23c0.05-0.16,0.1-0.31,0.15-0.47c0.03-0.1,0.06-0.2,0.08-0.31
			c0.04-0.15,0.08-0.29,0.11-0.44c0.01-0.04,0.02-0.08,0.03-0.12c0.01-0.05,0.01-0.1,0.02-0.15c0.04-0.21,0.07-0.41,0.1-0.61
			C116.18,323.27,116.19,323.18,116.2,323.1z"/>
		<path class="st0" d="M169.29,213.27c-0.03,0.2-0.06,0.41-0.1,0.61c-0.02,0.09-0.03,0.18-0.05,0.27c-0.03,0.15-0.07,0.29-0.11,0.44
			c-0.03,0.1-0.05,0.2-0.08,0.31c-0.05,0.16-0.1,0.31-0.15,0.47c-0.03,0.09-0.06,0.17-0.09,0.26c-0.16,0.44-0.35,0.88-0.56,1.32
			c-0.01,0.03-0.03,0.06-0.04,0.09c-0.24,0.49-0.52,0.96-0.81,1.42c-0.01,0.02-0.02,0.04-0.04,0.05c-0.19,0.28-0.39,0.56-0.6,0.83
			c-0.05,0.06-0.09,0.12-0.14,0.18c-0.22,0.27-0.44,0.53-0.68,0.78c-0.04,0.04-0.07,0.07-0.11,0.11c-0.3,0.3-0.61,0.59-0.92,0.85
			c-0.02,0.02-0.05,0.03-0.07,0.05c-0.33,0.27-0.68,0.51-1.03,0.71l-36.79,21.24c-0.05,0.03-0.1,0.05-0.15,0.08
			c-0.23,0.13-0.45,0.23-0.68,0.32c-0.06,0.02-0.12,0.05-0.18,0.07c-0.25,0.09-0.49,0.16-0.72,0.21c-0.07,0.01-0.14,0.02-0.21,0.03
			c-0.11,0.02-0.22,0.04-0.32,0.04c-0.07,0.01-0.15,0-0.22,0c-0.1,0-0.2,0-0.29,0c-0.08-0.01-0.15-0.02-0.23-0.03
			c-0.08-0.01-0.16-0.02-0.24-0.04c-0.07-0.02-0.14-0.04-0.22-0.06c-0.07-0.02-0.15-0.04-0.22-0.07c-0.12-0.05-0.24-0.1-0.36-0.17
			l7.05,4.1c0.1,0.06,0.2,0.11,0.31,0.15c0.02,0.01,0.03,0.01,0.05,0.02c0.07,0.03,0.15,0.05,0.22,0.07
			c0.07,0.02,0.14,0.05,0.22,0.06c0.08,0.02,0.16,0.03,0.24,0.04c0.06,0.01,0.12,0.02,0.18,0.03c0.02,0,0.03,0,0.05,0
			c0.09,0.01,0.19,0,0.29,0c0.07,0,0.14,0,0.22,0c0.1-0.01,0.21-0.03,0.32-0.04c0.06-0.01,0.12-0.01,0.19-0.02
			c0.01,0,0.02-0.01,0.02-0.01c0.23-0.05,0.48-0.12,0.72-0.21c0.06-0.02,0.12-0.05,0.18-0.07c0.22-0.09,0.45-0.2,0.68-0.32
			c0.03-0.01,0.05-0.02,0.08-0.04c0.02-0.01,0.04-0.02,0.07-0.04l36.79-21.24c0.35-0.2,0.7-0.44,1.03-0.71
			c0.02-0.02,0.05-0.03,0.07-0.05c0.32-0.26,0.63-0.54,0.92-0.85c0.02-0.02,0.05-0.04,0.07-0.06c0.01-0.01,0.03-0.03,0.04-0.05
			c0.24-0.25,0.46-0.51,0.68-0.78c0.05-0.06,0.09-0.12,0.14-0.18c0.21-0.27,0.41-0.54,0.6-0.83c0.01-0.01,0.02-0.03,0.03-0.04
			c0,0,0-0.01,0.01-0.01c0.3-0.46,0.57-0.93,0.81-1.42c0-0.01,0.01-0.02,0.02-0.03c0.01-0.02,0.02-0.04,0.03-0.06
			c0.21-0.43,0.4-0.87,0.56-1.32c0-0.01,0.01-0.02,0.01-0.03c0.03-0.08,0.05-0.15,0.07-0.23c0.05-0.16,0.1-0.31,0.15-0.47
			c0.03-0.1,0.05-0.2,0.08-0.31c0.04-0.15,0.08-0.29,0.11-0.44c0.01-0.04,0.02-0.08,0.03-0.12c0.01-0.05,0.01-0.1,0.02-0.15
			c0.04-0.21,0.07-0.41,0.1-0.61c0.01-0.08,0.02-0.17,0.03-0.25c0.03-0.28,0.04-0.55,0.04-0.82l-0.12-42.27
			c0-1.33-0.36-2.37-0.97-3.06c-0.2-0.23-0.43-0.42-0.69-0.57l-7.05-4.1c1.02,0.59,1.65,1.85,1.66,3.62l0.12,42.27
			c0,0.27-0.02,0.54-0.04,0.82C169.31,213.11,169.3,213.19,169.29,213.27z"/>
		<path class="st0" d="M69.57,282.58c0.1,0.06,0.2,0.11,0.31,0.15c0.02,0.01,0.03,0.01,0.05,0.02c0.07,0.03,0.15,0.05,0.22,0.07
			c0.07,0.02,0.14,0.05,0.22,0.06c0.08,0.02,0.16,0.03,0.24,0.04c0.06,0.01,0.12,0.02,0.18,0.03c0.02,0,0.03,0,0.05,0
			c0.09,0.01,0.19,0,0.29,0c0.07,0,0.14,0,0.22,0c0.1-0.01,0.21-0.03,0.32-0.04c0.06-0.01,0.12-0.01,0.19-0.03
			c0.01,0,0.02-0.01,0.02-0.01c0.23-0.05,0.48-0.12,0.72-0.21c0.06-0.02,0.12-0.05,0.18-0.07c0.22-0.09,0.45-0.2,0.68-0.32
			c0.03-0.01,0.05-0.02,0.08-0.04c0.02-0.01,0.04-0.02,0.07-0.04l36.78-21.24c0.35-0.2,0.7-0.44,1.03-0.71
			c0.02-0.02,0.05-0.03,0.07-0.05c0.32-0.26,0.63-0.54,0.92-0.85c0.02-0.02,0.05-0.04,0.07-0.06c0.01-0.01,0.03-0.03,0.04-0.05
			c0.24-0.25,0.46-0.51,0.68-0.78c0.05-0.06,0.09-0.12,0.14-0.18c0.21-0.27,0.41-0.54,0.6-0.83c0.01-0.01,0.02-0.03,0.03-0.04
			c0,0,0-0.01,0.01-0.01c0.3-0.46,0.57-0.93,0.81-1.42c0-0.01,0.01-0.02,0.02-0.03c0.01-0.02,0.02-0.04,0.03-0.06
			c0.21-0.43,0.4-0.87,0.56-1.32c0-0.01,0.01-0.02,0.01-0.03c0.03-0.07,0.05-0.15,0.07-0.22c0.05-0.16,0.11-0.31,0.15-0.47
			c0.03-0.1,0.05-0.2,0.08-0.31c0.04-0.15,0.08-0.29,0.11-0.44c0.01-0.04,0.02-0.08,0.03-0.12c0.01-0.05,0.01-0.1,0.02-0.15
			c0.04-0.21,0.07-0.41,0.1-0.62c0.01-0.08,0.02-0.17,0.03-0.25c0.03-0.28,0.04-0.55,0.04-0.82l-0.12-42.27
			c-0.01-1.78-0.64-3.03-1.66-3.63l-7.05-4.1c1.02,0.59,1.65,1.85,1.66,3.63l0.12,42.27c0,0.27-0.02,0.54-0.04,0.82
			c-0.01,0.08-0.02,0.16-0.03,0.25c-0.03,0.2-0.06,0.41-0.1,0.62c-0.02,0.09-0.03,0.18-0.05,0.27c-0.03,0.15-0.07,0.29-0.11,0.44
			c-0.03,0.1-0.05,0.2-0.08,0.31c-0.05,0.16-0.1,0.31-0.15,0.47c-0.03,0.09-0.06,0.18-0.09,0.26c-0.16,0.44-0.35,0.88-0.56,1.31
			c-0.01,0.03-0.03,0.06-0.04,0.09c-0.24,0.49-0.52,0.96-0.81,1.42c-0.01,0.02-0.03,0.04-0.04,0.06c-0.19,0.28-0.39,0.56-0.6,0.82
			c-0.05,0.06-0.09,0.12-0.14,0.18c-0.22,0.27-0.44,0.53-0.68,0.78c-0.04,0.04-0.07,0.07-0.11,0.11c-0.3,0.3-0.6,0.59-0.92,0.85
			c-0.02,0.02-0.05,0.03-0.07,0.05c-0.33,0.26-0.68,0.51-1.03,0.71L66.55,278.1c-0.05,0.03-0.1,0.05-0.15,0.08
			c-0.23,0.13-0.46,0.23-0.68,0.32c-0.06,0.02-0.12,0.05-0.18,0.07c-0.25,0.09-0.49,0.16-0.72,0.21c-0.07,0.01-0.14,0.02-0.21,0.03
			c-0.11,0.02-0.21,0.03-0.32,0.04c-0.07,0.01-0.15,0-0.22,0c-0.1,0-0.2,0-0.29,0c-0.08-0.01-0.15-0.02-0.23-0.03
			c-0.08-0.01-0.16-0.02-0.24-0.04c-0.07-0.02-0.14-0.04-0.22-0.06c-0.07-0.02-0.15-0.04-0.22-0.07c-0.12-0.05-0.24-0.1-0.36-0.17
			c0,0,0,0,0,0l0,0c0,0,0,0,0,0L69.57,282.58z"/>
	</g>
	<g>
		<path class="st1" d="M325.19,30.68c4.68-2.7,8.52-0.51,8.54,4.87l0.57,200.53c0.02,5.38-3.8,11.99-8.48,14.69L43.94,413.51
			c-4.68,2.7-8.52,0.51-8.54-4.87l-0.57-200.53c-0.02-5.38,3.8-12,8.48-14.7L325.19,30.68z M324.08,49.17l-0.02-6.92
			c0-1.22-0.87-1.71-1.93-1.1L71.78,185.68c-1.06,0.61-1.93,2.11-1.92,3.33l0.02,6.92c0,1.22,0.87,1.71,1.93,1.1L322.15,52.5
			C323.21,51.89,324.08,50.39,324.08,49.17 M176.61,287.43l-0.12-42.27c-0.01-3.59-2.57-5.05-5.69-3.25l-36.79,21.24
			c-3.12,1.8-5.66,6.21-5.65,9.8l0.12,42.27c0.01,3.59,2.57,5.05,5.69,3.25l36.79-21.24C174.07,295.43,176.62,291.02,176.61,287.43
			 M237.98,251.99l-0.12-42.27c-0.01-3.59-2.57-5.05-5.69-3.25l-36.78,21.24c-3.12,1.8-5.67,6.21-5.66,9.8l0.12,42.27
			c0.01,3.59,2.57,5.05,5.69,3.24l36.78-21.24C235.45,259.99,237.99,255.58,237.98,251.99 M176.41,216.3l-0.12-42.27
			c-0.01-3.58-2.57-5.04-5.69-3.24l-36.79,21.24c-3.12,1.8-5.66,6.21-5.65,9.79l0.12,42.27c0.01,3.59,2.57,5.05,5.69,3.25
			l36.79-21.24C173.87,224.3,176.42,219.89,176.41,216.3 M237.78,180.87l-0.12-42.27c-0.01-3.58-2.57-5.04-5.69-3.24l-36.78,21.24
			c-3.12,1.8-5.67,6.21-5.66,9.79l0.12,42.27c0.01,3.59,2.57,5.05,5.69,3.24l36.78-21.24C235.25,188.86,237.79,184.46,237.78,180.87
			 M116.24,322.28l-0.12-42.27c-0.01-3.59-2.57-5.05-5.69-3.25l-36.78,21.24c-3.12,1.8-5.67,6.21-5.66,9.8l0.12,42.27
			c0.01,3.59,2.57,5.05,5.69,3.24l36.78-21.24C113.71,330.28,116.25,325.87,116.24,322.28 M301.36,215.41l-0.12-42.27
			c-0.01-3.59-2.57-5.05-5.69-3.25l-36.78,21.24c-3.12,1.8-5.67,6.21-5.66,9.8l0.12,42.27c0.01,3.59,2.57,5.05,5.69,3.24
			l36.78-21.24C298.82,223.4,301.37,218.99,301.36,215.41 M116.04,251.16l-0.12-42.27c-0.01-3.58-2.57-5.04-5.69-3.24l-36.78,21.24
			c-3.12,1.8-5.67,6.21-5.66,9.79l0.12,42.27c0.01,3.59,2.57,5.05,5.69,3.24l36.78-21.24C113.51,259.15,116.05,254.74,116.04,251.16
			 M301.16,144.28l-0.12-42.27c-0.01-3.58-2.57-5.04-5.69-3.24L258.56,120c-3.12,1.8-5.67,6.21-5.66,9.79l0.12,42.27
			c0.01,3.59,2.57,5.05,5.69,3.24l36.78-21.24C298.62,152.27,301.17,147.87,301.16,144.28 M63.44,199.65l-0.02-6.92
			c0-1.22-0.87-1.71-1.93-1.1l-16.19,9.34c-1.06,0.61-1.93,2.11-1.93,3.33l0.02,6.92c0,1.22,0.88,1.71,1.94,1.1l16.19-9.34
			C62.57,202.37,63.44,200.87,63.44,199.65"/>
	</g>
	<g>
		<path class="st2" d="M322.12,41.15c1.06-0.61,1.93-0.12,1.93,1.1l0.02,6.92c0,1.22-0.86,2.72-1.92,3.33L71.81,197.03
			c-1.06,0.61-1.93,0.12-1.93-1.1l-0.02-6.92c0-1.22,0.86-2.72,1.92-3.33L322.12,41.15z"/>
	</g>
	<g>
		<path class="st2" d="M61.48,191.63c1.06-0.61,1.93-0.12,1.93,1.1l0.02,6.92c0,1.22-0.86,2.72-1.92,3.33l-16.19,9.34
			c-1.06,0.61-1.94,0.12-1.94-1.1l-0.02-6.92c0-1.22,0.87-2.72,1.93-3.33L61.48,191.63z"/>
	</g>
</g>
<g id="win8">
	<g>
		<path class="st2" d="M305.66,177.27c3.12-1.8,5.68-0.34,5.69,3.25l0.12,42.27c0.01,3.59-2.54,8-5.66,9.8l-36.79,21.24
			c-3.12,1.8-5.68,0.34-5.69-3.25l-0.12-42.27c-0.01-3.59,2.54-8,5.65-9.8L305.66,177.27z"/>
	</g>
	<path class="st3" d="M306.48,176.87c0.06-0.02,0.12-0.05,0.18-0.07c0.25-0.09,0.49-0.16,0.72-0.21c0.07-0.01,0.14-0.02,0.21-0.03
		c0.11-0.02,0.22-0.03,0.32-0.04c0.07-0.01,0.15,0,0.22,0c0.1,0,0.2,0,0.29,0c0.08,0.01,0.15,0.02,0.23,0.03
		c0.08,0.01,0.16,0.02,0.24,0.04c0.07,0.02,0.14,0.04,0.22,0.06c0.07,0.02,0.15,0.04,0.22,0.07c0.12,0.05,0.24,0.1,0.36,0.17
		l-7.05-4.1c-0.1-0.06-0.2-0.11-0.31-0.15c-0.02-0.01-0.03-0.01-0.05-0.02c-0.07-0.03-0.15-0.05-0.22-0.07
		c-0.07-0.02-0.14-0.05-0.22-0.06c-0.08-0.02-0.16-0.03-0.24-0.04c-0.06-0.01-0.12-0.02-0.18-0.03c-0.02,0-0.03,0-0.05,0
		c-0.09-0.01-0.19,0-0.29,0c-0.07,0-0.14,0-0.22,0c-0.1,0.01-0.21,0.03-0.32,0.04c-0.06,0.01-0.12,0.01-0.19,0.03
		c-0.01,0-0.02,0.01-0.02,0.01c-0.23,0.05-0.48,0.12-0.72,0.21c-0.06,0.02-0.12,0.05-0.18,0.07c-0.22,0.09-0.45,0.2-0.68,0.32
		c-0.03,0.02-0.05,0.02-0.08,0.04c-0.02,0.01-0.04,0.02-0.07,0.04l-36.79,21.24c-0.35,0.2-0.69,0.44-1.03,0.71
		c-0.02,0.02-0.05,0.03-0.07,0.05c-0.32,0.26-0.62,0.54-0.92,0.84c-0.02,0.02-0.05,0.04-0.07,0.06c-0.01,0.01-0.03,0.03-0.04,0.05
		c-0.23,0.25-0.46,0.51-0.68,0.78c-0.05,0.06-0.09,0.12-0.14,0.18c-0.21,0.27-0.41,0.54-0.59,0.82c-0.01,0.02-0.02,0.03-0.03,0.05
		c0,0,0,0.01-0.01,0.01c-0.3,0.46-0.57,0.93-0.81,1.42c0,0.01-0.01,0.02-0.01,0.03c-0.01,0.02-0.02,0.04-0.03,0.06
		c-0.21,0.43-0.4,0.87-0.56,1.32c0,0.01-0.01,0.02-0.01,0.03c-0.03,0.08-0.05,0.15-0.07,0.23c-0.05,0.16-0.1,0.31-0.15,0.47
		c-0.03,0.1-0.05,0.2-0.08,0.3c-0.04,0.15-0.08,0.29-0.11,0.44c-0.01,0.04-0.02,0.08-0.03,0.12c-0.01,0.05-0.01,0.1-0.02,0.15
		c-0.04,0.21-0.07,0.41-0.1,0.61c-0.01,0.08-0.02,0.17-0.03,0.25c-0.03,0.28-0.04,0.55-0.04,0.82l0.12,42.27
		c0.01,1.78,0.64,3.04,1.66,3.63l7.05,4.1c-1.02-0.59-1.66-1.85-1.66-3.63l-0.12-42.27c0-0.27,0.02-0.54,0.04-0.82
		c0.01-0.08,0.02-0.17,0.03-0.25c0.03-0.2,0.06-0.41,0.1-0.61c0.02-0.09,0.03-0.18,0.05-0.27c0.03-0.15,0.07-0.3,0.11-0.44
		c0.03-0.1,0.05-0.2,0.08-0.3c0.05-0.16,0.1-0.31,0.15-0.47c0.03-0.09,0.06-0.17,0.09-0.26c0.16-0.44,0.35-0.88,0.56-1.32
		c0.01-0.03,0.03-0.06,0.04-0.09c0.24-0.49,0.52-0.96,0.81-1.42c0.01-0.02,0.03-0.04,0.04-0.06c0.19-0.28,0.39-0.56,0.59-0.82
		c0.05-0.06,0.09-0.12,0.14-0.18c0.22-0.27,0.44-0.53,0.68-0.78c0.04-0.04,0.07-0.07,0.11-0.11c0.3-0.3,0.6-0.59,0.92-0.84
		c0.02-0.02,0.05-0.03,0.07-0.05c0.33-0.26,0.68-0.5,1.03-0.71l36.79-21.24c0.05-0.03,0.1-0.05,0.15-0.08
		C306.04,177.07,306.26,176.96,306.48,176.87z"/>
</g>
<g id="win7">
	<g>
		<path class="st2" d="M242.29,213.86c3.12-1.8,5.68-0.34,5.69,3.25l0.12,42.27c0.01,3.59-2.54,8-5.66,9.8l-36.78,21.24
			c-3.12,1.8-5.68,0.34-5.69-3.25l-0.12-42.27c-0.01-3.59,2.54-8,5.66-9.8L242.29,213.86z"/>
	</g>
	<path class="st3" d="M243.29,213.39c0.25-0.09,0.49-0.16,0.72-0.21c0.07-0.01,0.14-0.02,0.21-0.03c0.11-0.02,0.22-0.03,0.32-0.04
		c0.07-0.01,0.15,0,0.22,0c0.1,0,0.2,0,0.29,0c0.08,0.01,0.15,0.02,0.23,0.03c0.08,0.01,0.16,0.02,0.24,0.04
		c0.07,0.02,0.14,0.04,0.22,0.06c0.07,0.02,0.15,0.04,0.22,0.07c0.12,0.05,0.24,0.1,0.36,0.17l-7.05-4.1
		c-0.1-0.06-0.2-0.11-0.31-0.15c-0.02-0.01-0.03-0.01-0.05-0.02c-0.07-0.03-0.15-0.05-0.22-0.07c-0.07-0.02-0.14-0.05-0.22-0.06
		c-0.08-0.02-0.16-0.03-0.24-0.04c-0.06-0.01-0.12-0.02-0.18-0.03c-0.02,0-0.03,0-0.05,0c-0.09-0.01-0.19,0-0.29,0
		c-0.07,0-0.14,0-0.22,0c-0.1,0.01-0.21,0.03-0.32,0.04c-0.06,0.01-0.12,0.01-0.19,0.03c-0.01,0-0.02,0.01-0.02,0.01
		c-0.23,0.05-0.48,0.12-0.72,0.21c-0.06,0.02-0.12,0.05-0.18,0.07c-0.22,0.09-0.45,0.2-0.68,0.32c-0.03,0.01-0.05,0.02-0.08,0.04
		c-0.02,0.01-0.04,0.02-0.07,0.04L198.46,231c-0.35,0.2-0.7,0.44-1.03,0.71c-0.02,0.02-0.05,0.03-0.07,0.05
		c-0.32,0.26-0.63,0.54-0.92,0.85c-0.02,0.02-0.05,0.04-0.07,0.06c-0.01,0.01-0.03,0.03-0.04,0.05c-0.23,0.25-0.46,0.51-0.68,0.78
		c-0.05,0.06-0.09,0.12-0.14,0.18c-0.21,0.27-0.41,0.54-0.6,0.82c-0.01,0.02-0.02,0.03-0.03,0.04c0,0,0,0.01-0.01,0.01
		c-0.3,0.46-0.57,0.93-0.81,1.42c0,0.01-0.01,0.02-0.02,0.03c-0.01,0.02-0.02,0.04-0.03,0.06c-0.21,0.43-0.4,0.87-0.56,1.32
		c0,0.01-0.01,0.02-0.01,0.04c-0.03,0.08-0.05,0.15-0.07,0.23c-0.05,0.15-0.1,0.31-0.15,0.46c-0.03,0.1-0.06,0.2-0.08,0.31
		c-0.04,0.15-0.08,0.29-0.11,0.44c-0.01,0.04-0.02,0.08-0.03,0.12c-0.01,0.05-0.01,0.1-0.02,0.15c-0.04,0.21-0.07,0.41-0.1,0.61
		c-0.01,0.08-0.02,0.17-0.03,0.25c-0.03,0.28-0.04,0.55-0.04,0.82l0.12,42.27c0,0.67,0.09,1.26,0.26,1.78
		c0.11,0.34,0.26,0.65,0.43,0.92c0.09,0.13,0.18,0.26,0.28,0.37c0.2,0.23,0.43,0.42,0.69,0.57l7.05,4.1
		c-1.02-0.59-1.66-1.85-1.66-3.63l-0.12-42.27c0-0.27,0.02-0.54,0.04-0.82c0.01-0.08,0.02-0.16,0.03-0.25
		c0.03-0.2,0.06-0.41,0.1-0.61c0.02-0.09,0.03-0.18,0.05-0.27c0.03-0.15,0.07-0.29,0.11-0.44c0.03-0.1,0.05-0.2,0.08-0.3
		c0.05-0.16,0.1-0.31,0.15-0.47c0.03-0.09,0.06-0.17,0.09-0.26c0.16-0.44,0.35-0.88,0.56-1.32c0.01-0.03,0.03-0.06,0.04-0.09
		c0.24-0.49,0.52-0.96,0.81-1.42c0.01-0.02,0.03-0.04,0.04-0.05c0.19-0.28,0.39-0.56,0.6-0.83c0.05-0.06,0.09-0.12,0.14-0.18
		c0.22-0.27,0.44-0.53,0.68-0.78c0.03-0.04,0.07-0.07,0.11-0.11c0.3-0.3,0.61-0.59,0.92-0.85c0.02-0.02,0.05-0.03,0.07-0.05
		c0.33-0.27,0.68-0.51,1.03-0.71l36.78-21.24c0.05-0.03,0.1-0.05,0.15-0.08c0.23-0.13,0.46-0.23,0.68-0.32
		C243.17,213.43,243.23,213.41,243.29,213.39z"/>
</g>
<g id="win6">
	<g>
		<path class="st2" d="M180.91,249.29c3.12-1.8,5.68-0.34,5.69,3.25l0.12,42.27c0.01,3.59-2.54,8-5.66,9.8l-36.79,21.24
			c-3.12,1.8-5.68,0.34-5.69-3.25l-0.12-42.27c-0.01-3.59,2.53-7.99,5.65-9.8L180.91,249.29z"/>
	</g>
	<path class="st3" d="M181.92,248.82c0.25-0.09,0.49-0.16,0.72-0.21c0.07-0.01,0.14-0.02,0.21-0.03c0.11-0.02,0.22-0.04,0.32-0.04
		c0.07-0.01,0.15,0,0.22,0c0.1,0,0.2,0,0.29,0c0.08,0.01,0.15,0.02,0.23,0.03c0.08,0.01,0.16,0.02,0.24,0.04
		c0.07,0.02,0.14,0.04,0.22,0.06c0.07,0.02,0.15,0.04,0.22,0.07c0.12,0.05,0.24,0.1,0.36,0.17l-7.05-4.1
		c-0.1-0.06-0.2-0.11-0.31-0.15c-0.02-0.01-0.03-0.01-0.05-0.02c-0.07-0.03-0.15-0.05-0.22-0.07c-0.07-0.02-0.14-0.05-0.22-0.06
		c-0.08-0.02-0.16-0.03-0.24-0.04c-0.06-0.01-0.12-0.02-0.18-0.03c-0.02,0-0.03,0-0.05,0c-0.09-0.01-0.19,0-0.29,0
		c-0.07,0-0.14,0-0.22,0c-0.1,0.01-0.21,0.03-0.32,0.04c-0.06,0.01-0.12,0.01-0.19,0.02c-0.01,0-0.02,0.01-0.02,0.01
		c-0.23,0.05-0.48,0.12-0.72,0.21c-0.06,0.02-0.12,0.05-0.18,0.07c-0.22,0.09-0.45,0.2-0.68,0.32c-0.03,0.02-0.05,0.02-0.08,0.04
		c-0.02,0.01-0.04,0.02-0.07,0.04l-36.79,21.24c-0.35,0.2-0.69,0.44-1.03,0.71c-0.02,0.02-0.05,0.03-0.07,0.05
		c-0.32,0.26-0.62,0.54-0.92,0.84c-0.02,0.02-0.05,0.04-0.07,0.06c-0.01,0.01-0.03,0.03-0.04,0.05c-0.23,0.25-0.46,0.51-0.68,0.78
		c-0.05,0.06-0.09,0.12-0.14,0.18c-0.21,0.26-0.4,0.54-0.59,0.82c-0.01,0.02-0.02,0.03-0.04,0.05c0,0,0,0.01-0.01,0.01
		c-0.3,0.45-0.57,0.93-0.81,1.42c0,0.01-0.01,0.02-0.01,0.03c-0.01,0.02-0.02,0.04-0.03,0.06c-0.21,0.43-0.4,0.87-0.56,1.32
		c0,0.01-0.01,0.02-0.01,0.03c-0.03,0.08-0.05,0.15-0.07,0.23c-0.05,0.16-0.11,0.31-0.15,0.47c-0.03,0.1-0.05,0.2-0.08,0.3
		c-0.04,0.15-0.08,0.3-0.11,0.44c-0.01,0.04-0.02,0.08-0.03,0.12c-0.01,0.05-0.01,0.1-0.02,0.15c-0.04,0.21-0.07,0.41-0.1,0.62
		c-0.01,0.08-0.02,0.17-0.03,0.25c-0.03,0.28-0.04,0.55-0.04,0.82l0.12,42.27c0.01,1.78,0.64,3.04,1.66,3.64l7.05,4.1
		c-1.02-0.59-1.66-1.85-1.66-3.64l-0.12-42.27c0-0.27,0.02-0.54,0.04-0.82c0.01-0.08,0.02-0.17,0.03-0.25
		c0.03-0.2,0.06-0.41,0.1-0.62c0.02-0.09,0.03-0.18,0.05-0.27c0.03-0.15,0.07-0.29,0.11-0.44c0.03-0.1,0.05-0.2,0.08-0.3
		c0.05-0.16,0.1-0.31,0.15-0.47c0.03-0.09,0.06-0.17,0.09-0.26c0.16-0.45,0.35-0.89,0.56-1.32c0.01-0.03,0.03-0.06,0.04-0.09
		c0.24-0.49,0.51-0.96,0.81-1.42c0.01-0.02,0.03-0.04,0.04-0.06c0.19-0.28,0.39-0.55,0.59-0.82c0.05-0.06,0.09-0.12,0.14-0.18
		c0.22-0.27,0.44-0.53,0.68-0.78c0.04-0.04,0.07-0.07,0.11-0.11c0.3-0.3,0.6-0.59,0.92-0.85c0.02-0.02,0.05-0.03,0.07-0.05
		c0.33-0.26,0.68-0.5,1.03-0.71l36.79-21.24c0.05-0.03,0.1-0.05,0.15-0.08c0.23-0.13,0.46-0.23,0.68-0.32
		C181.8,248.87,181.86,248.84,181.92,248.82z"/>
</g>
<g id="win5">
	<g>
		<path class="st2" d="M120.54,284.15c3.12-1.8,5.68-0.34,5.69,3.25l0.12,42.27c0.01,3.59-2.54,8-5.66,9.8l-36.78,21.24
			c-3.12,1.8-5.68,0.34-5.69-3.25l-0.12-42.27c-0.01-3.59,2.54-8,5.66-9.8L120.54,284.15z"/>
	</g>
	<path class="st3" d="M121.55,283.67c0.25-0.09,0.49-0.16,0.72-0.21c0.07-0.01,0.14-0.02,0.21-0.03c0.11-0.02,0.21-0.03,0.32-0.04
		c0.07-0.01,0.15,0,0.22,0c0.1,0,0.2,0,0.29,0c0.08,0.01,0.15,0.02,0.23,0.03c0.08,0.01,0.16,0.02,0.24,0.04
		c0.07,0.02,0.14,0.04,0.22,0.06c0.07,0.02,0.15,0.04,0.22,0.07c0.12,0.05,0.24,0.1,0.36,0.17l-7.05-4.1
		c-0.1-0.06-0.2-0.11-0.31-0.15c-0.02-0.01-0.03-0.01-0.05-0.02c-0.07-0.03-0.15-0.05-0.22-0.07c-0.07-0.02-0.14-0.05-0.22-0.06
		c-0.08-0.02-0.16-0.03-0.24-0.04c-0.06-0.01-0.12-0.02-0.18-0.03c-0.02,0-0.03,0-0.05,0c-0.09-0.01-0.19,0-0.29,0
		c-0.07,0-0.14,0-0.22,0c-0.1,0.01-0.21,0.03-0.32,0.04c-0.06,0.01-0.12,0.01-0.19,0.03c-0.01,0-0.02,0.01-0.02,0.01
		c-0.23,0.05-0.48,0.12-0.72,0.21c-0.06,0.02-0.12,0.05-0.18,0.07c-0.22,0.09-0.45,0.2-0.68,0.32c-0.03,0.02-0.05,0.02-0.08,0.04
		c-0.02,0.01-0.04,0.02-0.07,0.04l-36.78,21.24c-0.35,0.2-0.7,0.44-1.03,0.71c-0.02,0.02-0.05,0.03-0.07,0.05
		c-0.32,0.26-0.63,0.54-0.92,0.85c-0.02,0.02-0.05,0.04-0.07,0.06c-0.01,0.01-0.03,0.03-0.04,0.05c-0.23,0.25-0.46,0.51-0.68,0.78
		c-0.05,0.06-0.09,0.12-0.14,0.18c-0.21,0.27-0.41,0.54-0.59,0.82c-0.01,0.02-0.02,0.03-0.03,0.05c0,0,0,0.01-0.01,0.01
		c-0.3,0.46-0.57,0.93-0.81,1.42c0,0.01-0.01,0.02-0.02,0.03c-0.01,0.02-0.02,0.04-0.03,0.06c-0.21,0.43-0.4,0.87-0.56,1.32
		c0,0.01-0.01,0.02-0.01,0.03c-0.03,0.07-0.05,0.15-0.07,0.22c-0.05,0.16-0.11,0.31-0.15,0.47c-0.03,0.1-0.06,0.2-0.08,0.31
		c-0.04,0.15-0.08,0.29-0.11,0.44c-0.01,0.04-0.02,0.08-0.03,0.12c-0.01,0.05-0.01,0.1-0.02,0.15c-0.04,0.21-0.07,0.41-0.1,0.61
		c-0.01,0.08-0.02,0.17-0.03,0.25c-0.03,0.28-0.04,0.55-0.04,0.82l0.12,42.27c0.01,1.78,0.64,3.04,1.66,3.63l7.05,4.1
		c-1.02-0.59-1.66-1.85-1.66-3.63l-0.12-42.27c0-0.27,0.02-0.54,0.04-0.82c0.01-0.08,0.02-0.16,0.03-0.25
		c0.03-0.2,0.06-0.41,0.1-0.61c0.02-0.09,0.03-0.18,0.05-0.27c0.03-0.15,0.07-0.29,0.11-0.44c0.03-0.1,0.05-0.2,0.08-0.31
		c0.05-0.16,0.1-0.31,0.15-0.47c0.03-0.09,0.06-0.17,0.09-0.26c0.16-0.44,0.35-0.88,0.56-1.32c0.01-0.03,0.03-0.06,0.04-0.09
		c0.24-0.49,0.52-0.96,0.81-1.42c0.01-0.02,0.03-0.04,0.04-0.05c0.19-0.28,0.39-0.56,0.6-0.82c0.05-0.06,0.09-0.12,0.14-0.18
		c0.22-0.27,0.44-0.53,0.68-0.78c0.04-0.04,0.07-0.07,0.11-0.11c0.3-0.3,0.61-0.59,0.92-0.85c0.02-0.02,0.05-0.03,0.07-0.05
		c0.33-0.27,0.68-0.51,1.03-0.71l36.78-21.24c0.05-0.03,0.1-0.05,0.15-0.08c0.23-0.13,0.45-0.23,0.68-0.32
		C121.43,283.72,121.49,283.7,121.55,283.67z"/>
</g>
<g id="win4">
	<g>
		<path class="st2" d="M305.46,106.14c3.12-1.8,5.68-0.34,5.69,3.25l0.12,42.27c0.01,3.59-2.54,8-5.66,9.8l-36.79,21.24
			c-3.12,1.8-5.68,0.34-5.69-3.25l-0.12-42.27c-0.01-3.59,2.54-8,5.65-9.8L305.46,106.14z"/>
	</g>
	<path class="st3" d="M257.75,178.98l7.05,4.1c-1.02-0.59-1.66-1.85-1.66-3.63l-0.12-42.27c0-0.27,0.02-0.54,0.04-0.82
		c0.01-0.08,0.02-0.17,0.03-0.25c0.03-0.2,0.06-0.41,0.1-0.61c0.02-0.09,0.03-0.18,0.05-0.27c0.03-0.15,0.07-0.29,0.11-0.44
		c0.03-0.1,0.05-0.2,0.08-0.31c0.05-0.16,0.1-0.31,0.15-0.47c0.03-0.09,0.06-0.17,0.09-0.26c0.16-0.44,0.35-0.89,0.56-1.32
		c0.01-0.03,0.03-0.06,0.04-0.09c0.24-0.49,0.52-0.96,0.81-1.42c0.01-0.02,0.03-0.04,0.04-0.06c0.19-0.28,0.39-0.55,0.59-0.82
		c0.05-0.06,0.09-0.12,0.14-0.18c0.22-0.27,0.44-0.53,0.68-0.78c0.04-0.04,0.07-0.07,0.11-0.11c0.3-0.3,0.6-0.59,0.92-0.84
		c0.02-0.02,0.05-0.03,0.07-0.05c0.33-0.26,0.68-0.5,1.03-0.71l36.79-21.24c0.05-0.03,0.1-0.05,0.15-0.08
		c0.23-0.13,0.45-0.23,0.68-0.32c0.06-0.03,0.12-0.05,0.18-0.07c0.25-0.09,0.49-0.16,0.72-0.21c0.07-0.01,0.14-0.02,0.21-0.03
		c0.11-0.02,0.22-0.03,0.32-0.04c0.07-0.01,0.15,0,0.22,0c0.1,0,0.2,0,0.29,0c0.08,0.01,0.15,0.02,0.23,0.03
		c0.08,0.01,0.16,0.02,0.24,0.04c0.07,0.02,0.14,0.04,0.22,0.06c0.07,0.02,0.15,0.04,0.22,0.07c0.12,0.05,0.24,0.1,0.36,0.17
		l-7.05-4.1c-0.1-0.06-0.2-0.11-0.31-0.15c-0.02-0.01-0.03-0.01-0.05-0.02c-0.07-0.03-0.15-0.05-0.22-0.07
		c-0.07-0.02-0.14-0.05-0.22-0.06c-0.08-0.02-0.16-0.03-0.24-0.04c-0.06-0.01-0.12-0.02-0.18-0.03c-0.02,0-0.03,0-0.05,0
		c-0.09-0.01-0.19,0-0.29,0c-0.07,0-0.15,0-0.22,0c-0.1,0.01-0.21,0.03-0.32,0.04c-0.06,0.01-0.12,0.01-0.19,0.03
		c-0.01,0-0.02,0.01-0.02,0.01c-0.23,0.05-0.48,0.12-0.72,0.21c-0.06,0.02-0.12,0.05-0.18,0.07c-0.22,0.09-0.45,0.2-0.68,0.32
		c-0.03,0.02-0.05,0.02-0.08,0.04c-0.02,0.01-0.04,0.02-0.07,0.04l-36.79,21.24c-0.35,0.2-0.69,0.44-1.03,0.71
		c-0.02,0.02-0.05,0.03-0.07,0.05c-0.32,0.26-0.62,0.54-0.92,0.84c-0.02,0.02-0.05,0.04-0.07,0.06c-0.01,0.01-0.03,0.03-0.04,0.05
		c-0.23,0.25-0.46,0.51-0.68,0.78c-0.05,0.06-0.09,0.12-0.14,0.18c-0.21,0.27-0.41,0.54-0.59,0.82c-0.01,0.02-0.02,0.03-0.03,0.05
		c0,0,0,0.01-0.01,0.01c-0.3,0.46-0.57,0.93-0.81,1.42c0,0.01-0.01,0.02-0.01,0.03c-0.01,0.02-0.02,0.04-0.03,0.06
		c-0.21,0.43-0.4,0.87-0.56,1.32c0,0.01-0.01,0.02-0.01,0.03c-0.03,0.07-0.05,0.15-0.07,0.22c-0.05,0.16-0.11,0.31-0.15,0.47
		c-0.03,0.1-0.05,0.2-0.08,0.31c-0.04,0.15-0.08,0.29-0.11,0.44c-0.01,0.04-0.02,0.08-0.03,0.12c-0.01,0.05-0.01,0.1-0.02,0.15
		c-0.04,0.21-0.07,0.41-0.1,0.61c-0.01,0.08-0.02,0.17-0.03,0.25c-0.03,0.28-0.04,0.55-0.04,0.82l0.12,42.27
		C256.09,177.13,256.73,178.39,257.75,178.98z"/>
</g>
<g id="win3">
	<path class="st3" d="M194.38,215.57l7.05,4.1c-1.02-0.59-1.66-1.85-1.66-3.63l-0.12-42.27c0-0.27,0.02-0.54,0.04-0.82
		c0.01-0.08,0.02-0.16,0.03-0.25c0.03-0.2,0.06-0.41,0.1-0.61c0.02-0.09,0.03-0.18,0.05-0.27c0.03-0.15,0.07-0.29,0.11-0.44
		c0.03-0.1,0.05-0.2,0.08-0.31c0.05-0.16,0.1-0.31,0.15-0.47c0.03-0.09,0.06-0.17,0.09-0.26c0.16-0.44,0.35-0.88,0.56-1.32
		c0.01-0.03,0.03-0.06,0.04-0.09c0.24-0.49,0.52-0.96,0.81-1.42c0.01-0.02,0.03-0.04,0.04-0.05c0.19-0.28,0.39-0.56,0.6-0.83
		c0.05-0.06,0.09-0.12,0.14-0.18c0.22-0.27,0.44-0.53,0.68-0.78c0.03-0.04,0.07-0.07,0.11-0.11c0.3-0.3,0.61-0.59,0.92-0.85
		c0.02-0.02,0.05-0.03,0.07-0.05c0.33-0.27,0.68-0.51,1.03-0.71l36.78-21.24c0.05-0.03,0.1-0.05,0.15-0.08
		c0.23-0.13,0.45-0.23,0.68-0.32c0.06-0.03,0.12-0.05,0.18-0.07c0.25-0.09,0.49-0.16,0.72-0.21c0.07-0.01,0.14-0.02,0.21-0.03
		c0.11-0.02,0.21-0.03,0.32-0.04c0.07-0.01,0.15,0,0.22,0c0.1,0,0.2,0,0.29,0c0.08,0.01,0.15,0.02,0.23,0.03
		c0.08,0.01,0.16,0.02,0.24,0.04c0.07,0.02,0.14,0.04,0.22,0.06c0.07,0.02,0.15,0.04,0.22,0.07c0.12,0.05,0.24,0.1,0.36,0.17
		l-7.05-4.1c-0.1-0.06-0.2-0.11-0.31-0.15c-0.02-0.01-0.03-0.01-0.05-0.02c-0.07-0.03-0.15-0.05-0.22-0.07
		c-0.07-0.02-0.14-0.05-0.22-0.06c-0.08-0.02-0.16-0.03-0.24-0.04c-0.06-0.01-0.12-0.02-0.18-0.03c-0.02,0-0.03,0-0.05,0
		c-0.09-0.01-0.19,0-0.29,0c-0.07,0-0.14,0-0.22,0c-0.1,0.01-0.21,0.03-0.32,0.04c-0.06,0.01-0.12,0.01-0.19,0.03
		c-0.01,0-0.02,0.01-0.02,0.01c-0.23,0.05-0.48,0.12-0.72,0.21c-0.06,0.02-0.12,0.05-0.18,0.07c-0.22,0.09-0.45,0.2-0.68,0.32
		c-0.03,0.02-0.05,0.02-0.08,0.04c-0.02,0.01-0.04,0.02-0.07,0.04l-36.78,21.24c-0.35,0.2-0.7,0.44-1.03,0.71
		c-0.02,0.02-0.05,0.03-0.07,0.05c-0.32,0.26-0.63,0.54-0.92,0.85c-0.02,0.02-0.05,0.04-0.07,0.06c-0.01,0.01-0.03,0.03-0.04,0.05
		c-0.24,0.25-0.46,0.51-0.68,0.78c-0.05,0.06-0.09,0.12-0.14,0.18c-0.21,0.27-0.41,0.54-0.6,0.82c-0.01,0.02-0.02,0.03-0.03,0.05
		c0,0,0,0.01-0.01,0.01c-0.3,0.46-0.57,0.93-0.81,1.42c0,0.01-0.01,0.02-0.02,0.03c-0.01,0.02-0.02,0.04-0.03,0.06
		c-0.21,0.43-0.4,0.87-0.56,1.32c0,0.01-0.01,0.02-0.01,0.03c-0.03,0.07-0.05,0.15-0.07,0.22c-0.05,0.16-0.11,0.31-0.15,0.47
		c-0.03,0.1-0.06,0.2-0.08,0.31c-0.04,0.15-0.08,0.29-0.11,0.44c-0.01,0.04-0.02,0.08-0.03,0.12c-0.01,0.05-0.01,0.1-0.02,0.15
		c-0.04,0.21-0.07,0.41-0.1,0.61c-0.01,0.08-0.02,0.17-0.03,0.25c-0.03,0.28-0.04,0.55-0.04,0.82l0.12,42.27
		C192.72,213.72,193.36,214.97,194.38,215.57z"/>
	<g>
		<path class="st2" d="M242.08,142.73c3.12-1.8,5.68-0.34,5.69,3.25l0.12,42.27c0.01,3.59-2.54,8-5.66,9.8l-36.78,21.24
			c-3.12,1.8-5.68,0.34-5.69-3.25l-0.12-42.27c-0.01-3.59,2.54-8,5.66-9.8L242.08,142.73z"/>
	</g>
</g>
<g id="win2">
	<g>
		<path class="st2" d="M180.71,178.17c3.12-1.8,5.68-0.34,5.69,3.25l0.12,42.27c0.01,3.59-2.54,8-5.66,9.8l-36.79,21.24
			c-3.12,1.8-5.68,0.34-5.69-3.25l-0.12-42.27c-0.01-3.59,2.53-7.99,5.65-9.8L180.71,178.17z"/>
	</g>
	<path class="st3" d="M133,251.01l7.05,4.1c-1.02-0.59-1.66-1.85-1.66-3.64l-0.12-42.27c0-0.27,0.02-0.54,0.04-0.82
		c0.01-0.08,0.02-0.16,0.03-0.25c0.03-0.2,0.06-0.41,0.1-0.62c0.02-0.09,0.03-0.18,0.05-0.27c0.03-0.15,0.07-0.3,0.11-0.44
		c0.03-0.1,0.05-0.2,0.08-0.3c0.05-0.16,0.1-0.31,0.15-0.47c0.03-0.09,0.06-0.17,0.09-0.26c0.16-0.45,0.35-0.89,0.56-1.32
		c0.01-0.03,0.03-0.06,0.04-0.08c0.24-0.49,0.52-0.96,0.81-1.42c0.01-0.02,0.03-0.04,0.04-0.06c0.19-0.28,0.39-0.55,0.59-0.82
		c0.05-0.06,0.09-0.12,0.14-0.18c0.22-0.27,0.44-0.53,0.68-0.78c0.04-0.04,0.07-0.07,0.11-0.11c0.3-0.3,0.6-0.59,0.92-0.84
		c0.02-0.02,0.05-0.03,0.07-0.05c0.33-0.26,0.68-0.5,1.03-0.71l36.79-21.24c0.05-0.03,0.1-0.05,0.15-0.08
		c0.23-0.13,0.46-0.23,0.68-0.32c0.06-0.02,0.12-0.05,0.18-0.07c0.25-0.09,0.49-0.16,0.72-0.21c0.07-0.01,0.14-0.02,0.21-0.03
		c0.11-0.02,0.21-0.03,0.32-0.04c0.08-0.01,0.15,0,0.22,0c0.1,0,0.19,0,0.29,0c0.08,0.01,0.15,0.02,0.23,0.03
		c0.08,0.01,0.16,0.02,0.24,0.04c0.07,0.02,0.14,0.04,0.22,0.06c0.07,0.02,0.15,0.04,0.22,0.07c0.12,0.05,0.24,0.1,0.36,0.17
		l-7.05-4.1c-0.1-0.06-0.2-0.11-0.31-0.15c-0.02-0.01-0.03-0.01-0.05-0.02c-0.07-0.03-0.15-0.05-0.22-0.07
		c-0.07-0.02-0.14-0.05-0.22-0.06c-0.08-0.02-0.16-0.03-0.24-0.04c-0.06-0.01-0.12-0.02-0.18-0.03c-0.02,0-0.04,0-0.05,0
		c-0.09-0.01-0.19,0-0.29,0c-0.07,0-0.15,0-0.22,0c-0.1,0.01-0.21,0.03-0.32,0.04c-0.06,0.01-0.12,0.01-0.19,0.03
		c-0.01,0-0.02,0.01-0.02,0.01c-0.23,0.05-0.48,0.12-0.72,0.21c-0.06,0.02-0.12,0.05-0.18,0.07c-0.22,0.09-0.45,0.2-0.68,0.32
		c-0.03,0.01-0.05,0.02-0.08,0.04c-0.02,0.01-0.04,0.02-0.07,0.04l-36.79,21.24c-0.35,0.2-0.7,0.44-1.03,0.71
		c-0.02,0.02-0.05,0.03-0.07,0.05c-0.32,0.26-0.63,0.54-0.92,0.84c-0.02,0.02-0.05,0.04-0.07,0.06c-0.01,0.01-0.03,0.03-0.04,0.05
		c-0.23,0.25-0.46,0.51-0.68,0.78c-0.05,0.06-0.09,0.12-0.14,0.18c-0.21,0.27-0.41,0.54-0.59,0.82c-0.01,0.02-0.02,0.03-0.03,0.05
		c0,0,0,0.01-0.01,0.01c-0.3,0.46-0.57,0.93-0.81,1.42c0,0.01-0.01,0.02-0.01,0.02c-0.01,0.02-0.02,0.04-0.03,0.06
		c-0.21,0.43-0.4,0.87-0.56,1.32c0,0.01-0.01,0.02-0.01,0.03c-0.03,0.07-0.05,0.15-0.07,0.22c-0.05,0.16-0.11,0.32-0.15,0.47
		c-0.03,0.1-0.05,0.2-0.08,0.3c-0.04,0.15-0.08,0.3-0.11,0.45c-0.01,0.04-0.02,0.08-0.03,0.12c-0.01,0.05-0.01,0.1-0.02,0.15
		c-0.04,0.21-0.07,0.41-0.1,0.62c-0.01,0.08-0.02,0.17-0.03,0.25c-0.03,0.28-0.04,0.55-0.04,0.82l0.12,42.27
		C131.35,249.15,131.98,250.41,133,251.01z"/>
</g>
<g id="win1">
	<g>
		<path class="st2" d="M120.34,213.02c3.12-1.8,5.68-0.34,5.69,3.25l0.12,42.27c0.01,3.59-2.54,8-5.66,9.8l-36.78,21.24
			c-3.12,1.8-5.68,0.34-5.69-3.25l-0.12-42.27c-0.01-3.59,2.54-8,5.66-9.8L120.34,213.02z"/>
	</g>
	<path class="st3" d="M72.63,285.86l7.05,4.1c-1.02-0.59-1.66-1.85-1.66-3.63l-0.12-42.27c0-0.27,0.02-0.54,0.04-0.82
		c0.01-0.08,0.02-0.17,0.03-0.25c0.03-0.2,0.06-0.41,0.1-0.61c0.02-0.09,0.03-0.18,0.05-0.27c0.03-0.15,0.07-0.29,0.11-0.44
		c0.03-0.1,0.05-0.2,0.08-0.31c0.05-0.16,0.1-0.31,0.15-0.47c0.03-0.09,0.06-0.17,0.09-0.26c0.16-0.44,0.35-0.88,0.56-1.32
		c0.01-0.03,0.03-0.06,0.04-0.09c0.24-0.49,0.52-0.96,0.81-1.42c0.01-0.02,0.03-0.04,0.04-0.05c0.19-0.28,0.39-0.56,0.6-0.82
		c0.05-0.06,0.09-0.12,0.14-0.18c0.22-0.27,0.44-0.53,0.68-0.78c0.04-0.04,0.07-0.07,0.11-0.11c0.3-0.3,0.61-0.59,0.92-0.85
		c0.02-0.02,0.05-0.03,0.07-0.05c0.33-0.27,0.68-0.51,1.03-0.71l36.78-21.24c0.05-0.03,0.1-0.05,0.15-0.08
		c0.23-0.13,0.46-0.23,0.68-0.32c0.06-0.02,0.12-0.05,0.18-0.07c0.25-0.09,0.49-0.16,0.72-0.21c0.07-0.01,0.14-0.02,0.21-0.03
		c0.11-0.02,0.21-0.03,0.32-0.04c0.07-0.01,0.15,0,0.22,0c0.1,0,0.2,0,0.29,0c0.08,0.01,0.15,0.02,0.23,0.03
		c0.08,0.01,0.16,0.02,0.24,0.04c0.07,0.02,0.15,0.04,0.22,0.06c0.07,0.02,0.15,0.04,0.22,0.07c0.12,0.05,0.24,0.1,0.36,0.17
		l-7.05-4.1c-0.1-0.06-0.2-0.11-0.31-0.15c-0.02-0.01-0.03-0.01-0.05-0.02c-0.07-0.03-0.15-0.05-0.22-0.07
		c-0.07-0.02-0.14-0.05-0.22-0.06c-0.08-0.02-0.16-0.03-0.24-0.04c-0.06-0.01-0.12-0.02-0.18-0.03c-0.02,0-0.03,0-0.05,0
		c-0.09-0.01-0.19,0-0.29,0c-0.07,0-0.14,0-0.22,0c-0.1,0.01-0.21,0.03-0.32,0.04c-0.06,0.01-0.12,0.01-0.19,0.03
		c-0.01,0-0.02,0.01-0.02,0.01c-0.23,0.05-0.48,0.12-0.72,0.21c-0.06,0.02-0.12,0.05-0.18,0.07c-0.22,0.09-0.45,0.2-0.68,0.32
		c-0.03,0.01-0.05,0.02-0.08,0.04c-0.02,0.01-0.04,0.02-0.07,0.04l-36.78,21.24c-0.35,0.2-0.7,0.44-1.03,0.71
		c-0.02,0.02-0.05,0.03-0.07,0.05c-0.32,0.26-0.63,0.54-0.92,0.85c-0.02,0.02-0.05,0.04-0.07,0.06c-0.01,0.01-0.03,0.03-0.04,0.05
		c-0.24,0.25-0.46,0.51-0.68,0.78c-0.05,0.06-0.09,0.12-0.14,0.18c-0.21,0.27-0.41,0.54-0.6,0.82c-0.01,0.02-0.02,0.03-0.03,0.04
		c0,0,0,0.01-0.01,0.01c-0.3,0.46-0.57,0.93-0.81,1.42c0,0.01-0.01,0.02-0.02,0.03c-0.01,0.02-0.02,0.04-0.03,0.06
		c-0.21,0.43-0.4,0.87-0.56,1.32c0,0.01-0.01,0.02-0.01,0.03c-0.03,0.07-0.05,0.15-0.07,0.22c-0.05,0.16-0.11,0.31-0.15,0.47
		c-0.03,0.1-0.05,0.2-0.08,0.3c-0.04,0.15-0.08,0.29-0.11,0.44c-0.01,0.04-0.02,0.08-0.03,0.12c-0.01,0.05-0.01,0.1-0.02,0.15
		c-0.04,0.21-0.07,0.41-0.1,0.61c-0.01,0.08-0.02,0.17-0.03,0.25c-0.03,0.28-0.04,0.55-0.04,0.82l0.12,42.27
		C70.98,284.01,71.61,285.26,72.63,285.86z"/>
</g>
</svg>
